<svg xmlns="http://www.w3.org/2000/svg" width="14.23" height="16.32" viewBox="0 0 14.23 16.32"><g transform="translate(-31.444)"><g transform="translate(38.286 0.291)"><path d="M248.547,11.111a.273.273,0,0,1-.273-.273V8.494a.273.273,0,0,1,.547,0v2.344A.273.273,0,0,1,248.547,11.111Z" transform="translate(-248.274 -8.221)" fill="#5cd500"/></g><path d="M0,0H1V3.029H0Z" transform="translate(32.456 3.023) rotate(-45)" fill="#5cd500"/><path d="M0,0H1V3.029H0Z" transform="translate(42.52 5.166) rotate(-135)" fill="#5cd500"/><g transform="translate(34.334 11.643)"><path d="M124.945,384.434a.715.715,0,0,1-.7-.839l.573-3.248a.714.714,0,1,1,1.407.248l-.573,3.248A.715.715,0,0,1,124.945,384.434Z" transform="translate(-124.229 -379.756)" fill="#5cd500"/></g><g transform="translate(40.511 11.643)"><path d="M323.78,384.433a.715.715,0,0,1-.7-.59l-.573-3.248a.714.714,0,0,1,1.407-.248l.573,3.248a.715.715,0,0,1-.7.839Z" transform="translate(-322.494 -379.756)" fill="#5cd500"/></g><ellipse cx="6.098" cy="6.031" rx="6.098" ry="6.031" transform="translate(32.461 2.156)" fill="#449e00"/><path d="M4.487,0A4.454,4.454,0,0,1,8.974,4.42,4.454,4.454,0,0,1,4.487,8.84,4.454,4.454,0,0,1,0,4.42,4.454,4.454,0,0,1,4.487,0Z" transform="translate(34.072 3.766)" fill="#eeffe1"/><g transform="translate(36.427 4.238)"><path d="M193.254,148.747a.547.547,0,0,1-.424-.891l1.57-1.93v-3.315a.547.547,0,0,1,1.093,0v3.51a.546.546,0,0,1-.123.345l-1.692,2.081A.546.546,0,0,1,193.254,148.747Z" transform="translate(-192.708 -142.064)" fill="#449e00"/></g><path d="M34.811,37.935l-2.185,2.185a.256.256,0,0,1-.362,0l-.294-.294a1.8,1.8,0,0,1,2.546-2.546l.294.294A.256.256,0,0,1,34.811,37.935Z" transform="translate(0 -35.452)" fill="#449e00"/><path d="M383.309,37.935l2.185,2.185a.256.256,0,0,0,.362,0l.294-.294a1.8,1.8,0,0,0-2.546-2.546l-.294.294A.256.256,0,0,0,383.309,37.935Z" transform="translate(-341.002 -35.452)" fill="#449e00"/><path d="M219.214,1.128h-1.629a.564.564,0,0,1,0-1.128h1.629a.564.564,0,0,1,0,1.128Z" transform="translate(-179.841)" fill="#449e00"/><path d="M234.038,60.945a8.025,8.025,0,0,0-.805.041c3.445.347,6.12,2.9,6.12,5.99s-2.675,5.642-6.12,5.99a8.024,8.024,0,0,0,.805.041c3.825,0,6.925-2.7,6.925-6.031s-3.1-6.031-6.925-6.031Z" transform="translate(-196.307 -58.789)" fill="#3e8f00"/><path d="M241.915,106.479q-.261,0-.516.021c2.689.217,4.8,2.107,4.8,4.4s-2.109,4.182-4.8,4.4q.255.021.516.021c2.931,0,5.315-1.983,5.315-4.42S244.846,106.479,241.915,106.479Z" transform="translate(-203.752 -102.713)" fill="#c8e4b2"/></g></svg>