<svg xmlns="http://www.w3.org/2000/svg" width="16.508" height="17.289" viewBox="0 0 16.508 17.289"><path d="M5.518,17.289a4.336,4.336,0,0,1-3.066-7.4L11.42.924a3.212,3.212,0,0,1,4.637.136A3.211,3.211,0,0,1,16.193,5.7L7.769,14.121A2.03,2.03,0,0,1,4.9,11.25L10.6,5.544a.493.493,0,0,1,.7.7L5.595,11.947a1.044,1.044,0,1,0,1.477,1.477L15.5,5a2.249,2.249,0,0,0-.136-3.243,2.249,2.249,0,0,0-3.243-.136L3.149,10.588a3.35,3.35,0,0,0,4.738,4.738l8.967-8.967a.493.493,0,1,1,.7.7L8.584,16.023A4.305,4.305,0,0,1,5.518,17.289Z" transform="translate(-1.187)" fill="#a3acb6"/></svg>