<svg xmlns="http://www.w3.org/2000/svg" width="25.093" height="29.5" viewBox="0 0 25.093 29.5"><g transform="translate(-36.073)"><g transform="translate(36.073)"><path d="M143.35,15.9h.2a5.637,5.637,0,0,0,4.307-1.863c2.352-2.651,1.961-7.2,1.918-7.63-.153-3.256-1.692-4.814-2.963-5.541A6.792,6.792,0,0,0,143.522,0h-.1a6.8,6.8,0,0,0-3.287.837c-1.283.727-2.847,2.285-3,5.565-.043.434-.434,4.979,1.918,7.63A5.614,5.614,0,0,0,143.35,15.9Zm-4.588-9.341c0-.018.006-.037.006-.049.2-4.38,3.311-4.85,4.643-4.85h.073c1.649.037,4.453.709,4.643,4.85a.119.119,0,0,0,.006.049c.006.043.434,4.2-1.509,6.384a4,4,0,0,1-3.146,1.307h-.061a3.991,3.991,0,0,1-3.14-1.307C138.341,10.764,138.757,6.592,138.763,6.555Z" transform="translate(-130.911)" fill="#96adc2"/><path d="M61.164,266.841v-.018c0-.049-.006-.1-.006-.153-.037-1.21-.116-4.038-2.767-4.942l-.061-.018a17.626,17.626,0,0,1-5.07-2.309.825.825,0,0,0-.947,1.35,19.025,19.025,0,0,0,5.577,2.547c1.423.507,1.582,2.028,1.625,3.421a1.227,1.227,0,0,0,.006.153,11.088,11.088,0,0,1-.128,1.888,22.482,22.482,0,0,1-10.77,2.5,22.612,22.612,0,0,1-10.776-2.511,10.5,10.5,0,0,1-.128-1.888c0-.049.006-.1.006-.153.043-1.393.2-2.914,1.625-3.421a19.2,19.2,0,0,0,5.577-2.547.825.825,0,1,0-.947-1.35,17.433,17.433,0,0,1-5.07,2.309c-.024.006-.043.012-.061.018-2.651.91-2.731,3.739-2.767,4.942a1.227,1.227,0,0,1-.006.153v.018a9.368,9.368,0,0,0,.312,2.767.784.784,0,0,0,.318.385c.183.122,4.576,2.92,11.925,2.92s11.741-2.8,11.925-2.92a.817.817,0,0,0,.318-.385A9.829,9.829,0,0,0,61.164,266.841Z" transform="translate(-36.073 -243.407)" fill="#96adc2"/></g></g></svg>