<svg xmlns="http://www.w3.org/2000/svg" width="29.562" height="29.509" viewBox="0 0 29.562 29.509"><g transform="translate(-0.001 -0.458)"><path d="M14.781,2.426a1.732,1.732,0,1,0,1.732,1.732A1.734,1.734,0,0,0,14.781,2.426Zm0,2.6a.866.866,0,1,1,.866-.866A.867.867,0,0,1,14.781,5.024Zm14.78,2.043a.436.436,0,0,0-.266-.393L15.185.542a1.013,1.013,0,0,0-.807,0L.267,6.674A.437.437,0,0,0,0,7.08V8.5a1.59,1.59,0,0,0,1.588,1.588H1.93a1.642,1.642,0,0,0,1.824,2.38V24.809a.933.933,0,0,0-1.1.895v.821H1.589A1.59,1.59,0,0,0,0,28.112v1.133a.722.722,0,0,0,.722.722H28.84a.722.722,0,0,0,.722-.722V28.112a1.59,1.59,0,0,0-1.588-1.588H26.906V25.7a.93.93,0,0,0-1.1-.895V12.463a1.644,1.644,0,0,0,1.824-2.38h.341A1.59,1.59,0,0,0,29.562,8.5V7.08s0,0,0-.013ZM3.378,11.642a.779.779,0,0,1,0-1.559h4.68a.779.779,0,1,1-.766.933.433.433,0,0,0-.85.168,1.633,1.633,0,0,0,.372.758v7.475a.433.433,0,1,0,.866,0V12.463A1.644,1.644,0,0,0,9.5,10.083h1.49a1.642,1.642,0,0,0,1.824,2.38V24.809a.933.933,0,0,0-1.1.895v.821H8.777V25.7a.93.93,0,0,0-1.1-.895V21.437a.433.433,0,1,0-.866,0v3.371H4.62V11.942a1.632,1.632,0,0,0,.372-.758.433.433,0,1,0-.85-.168.779.779,0,0,1-.764.626Zm15.19-1.559h1.49a1.642,1.642,0,0,0,1.824,2.38V24.809a.933.933,0,0,0-1.1.895v.821H17.842V25.7a.93.93,0,0,0-1.1-.895V12.463a1.644,1.644,0,0,0,1.824-2.38ZM16.975,25.7v.821H12.587V25.7a.029.029,0,0,1,.029-.029h4.33A.029.029,0,0,1,16.975,25.7Zm.144-14.062a.779.779,0,0,1-.764-.626.433.433,0,0,0-.85.168,1.633,1.633,0,0,0,.372.758V24.809H13.684V11.942a1.632,1.632,0,0,0,.372-.758.433.433,0,1,0-.85-.168.779.779,0,1,1-.766-.933h4.68a.779.779,0,0,1,0,1.559ZM3.523,25.7a.029.029,0,0,1,.029-.029h4.33a.029.029,0,0,1,.029.029v.821H3.523ZM27.974,27.39a.722.722,0,0,1,.722.722V29.1H.867v-.989a.722.722,0,0,1,.722-.722Zm-1.963-1.716a.029.029,0,0,1,.029.029v.821H21.652V25.7a.029.029,0,0,1,.029-.029Zm.173-14.033a.779.779,0,0,1-.764-.626.433.433,0,0,0-.85.168,1.633,1.633,0,0,0,.372.758V24.809H22.749V11.942a1.632,1.632,0,0,0,.372-.758.433.433,0,0,0-.85-.168.779.779,0,1,1-.766-.933h4.68a.779.779,0,0,1,0,1.559ZM28.7,8.5a.722.722,0,0,1-.722.722H1.589A.722.722,0,0,1,.867,8.5V7.507H21.086a.433.433,0,1,0,0-.866H2.517L14.724,1.336a.145.145,0,0,1,.116,0l12.207,5.3h-3.94a.433.433,0,1,0,0,.866H28.7V8.5Z" transform="translate(0)" fill="#96adc2"/></g></svg>