<svg xmlns="http://www.w3.org/2000/svg" width="16.893" height="20.27" viewBox="0 0 16.893 20.27"><g transform="translate(-42.657)"><g transform="translate(42.657 2.956)"><g transform="translate(0)"><path d="M59.49,88.808l-1.451-2.417A7.185,7.185,0,0,1,57.016,82.7V80.579a5.912,5.912,0,1,0-11.824,0V82.7a7.185,7.185,0,0,1-1.023,3.694l-1.451,2.417a.422.422,0,0,0,.362.639H59.127a.422.422,0,0,0,.362-.639ZM43.826,88.6l1.067-1.778A8.022,8.022,0,0,0,46.036,82.7V80.579a5.068,5.068,0,1,1,10.135,0V82.7a8.029,8.029,0,0,0,1.143,4.128L58.382,88.6Z" transform="translate(-42.657 -74.667)" fill="#999"/></g></g><g transform="translate(49.415)"><path d="M215.022,0a1.691,1.691,0,0,0-1.689,1.689V3.378a.422.422,0,0,0,.845,0V1.689a.845.845,0,1,1,1.689,0V3.378a.422.422,0,0,0,.845,0V1.689A1.691,1.691,0,0,0,215.022,0Z" transform="translate(-213.333)" fill="#999"/></g><g transform="translate(48.992 16.892)"><g transform="translate(0)"><path d="M206.605,426.888a.423.423,0,0,0-.73.427,1.267,1.267,0,1,1-2.194,0,.423.423,0,0,0-.73-.427,2.112,2.112,0,1,0,3.654,0Z" transform="translate(-202.666 -426.68)" fill="#999"/></g></g></g></svg>