<svg xmlns="http://www.w3.org/2000/svg" width="15.5" height="15.5" viewBox="0 0 15.5 15.5"><g transform="translate(0)"><path d="M13.5,1.211H12.109V.484a.484.484,0,0,0-.969,0v.727H4.359V.484a.484.484,0,0,0-.969,0v.727H2a2,2,0,0,0-2,2V13.5a2,2,0,0,0,2,2H13.5a2,2,0,0,0,2-2V3.209A2,2,0,0,0,13.5,1.211ZM2,2.18H3.391v.484a.484.484,0,0,0,.969,0V2.18h6.781v.484a.484.484,0,0,0,.969,0V2.18H13.5a1.03,1.03,0,0,1,1.029,1.029v1.15H.969V3.209A1.03,1.03,0,0,1,2,2.18ZM13.5,14.531H2A1.03,1.03,0,0,1,.969,13.5V5.328H14.531V13.5A1.03,1.03,0,0,1,13.5,14.531Z" transform="translate(0)" fill="#f64401"/></g></svg>