<svg xmlns="http://www.w3.org/2000/svg" width="17.482" height="17.482" viewBox="0 0 17.482 17.482"><g transform="translate(4.151 2.196)"><path d="M134.4,64.521a.659.659,0,0,0-.932,0l-7.9,7.883-2.852-3.1a.659.659,0,1,0-.969.893l3.316,3.6a.658.658,0,0,0,.471.212h.014a.66.66,0,0,0,.465-.192l8.39-8.368A.659.659,0,0,0,134.4,64.521Z" transform="translate(-121.568 -64.327)" fill="#059e00"/></g><path d="M16.823,8.082a.659.659,0,0,0-.659.659A7.423,7.423,0,1,1,8.741,1.318.659.659,0,1,0,8.741,0a8.741,8.741,0,1,0,8.741,8.741A.659.659,0,0,0,16.823,8.082Z" fill="#059e00"/></svg>