<svg xmlns="http://www.w3.org/2000/svg" xmlns:xlink="http://www.w3.org/1999/xlink" width="45" height="45" viewBox="0 0 45 45"><defs><clipPath id="a"><rect width="45" height="45" fill="none"/></clipPath></defs><g clip-path="url(#a)"><rect width="44" height="44" fill="none"/><path d="M22.16,28.659a5.735,5.735,0,0,0,0-11.463,5.735,5.735,0,0,0,0,11.463Zm0-17.2A11.31,11.31,0,0,1,33.24,22.927,11.31,11.31,0,0,1,22.16,34.39,11.31,11.31,0,0,1,11.08,22.927,11.31,11.31,0,0,1,22.16,11.463ZM38.78,42.988H5.54a5.381,5.381,0,0,1-3.878-1.72A5.756,5.756,0,0,1,0,37.256V11.463A5.655,5.655,0,0,1,5.54,5.732H9.972l4.155-4.3A4.514,4.514,0,0,1,17.451,0h9.7a4.384,4.384,0,0,1,3.047,1.433l4.155,4.3H38.78a5.655,5.655,0,0,1,5.54,5.732V37.256A5.655,5.655,0,0,1,38.78,42.988Z" transform="translate(0 1.333)" fill="#f64401" fill-rule="evenodd"/></g></svg>