<svg xmlns="http://www.w3.org/2000/svg" width="30" height="32" viewBox="0 0 30 32"><g transform="translate(-1.318 0.494)"><g transform="translate(1.5)"><path d="M28.48,4.5h0C28.068,1.99,22.193,0,15,0S1.937,1.99,1.525,4.5H1.5V25.317h.025c.411,2.51,6.287,4.5,13.477,4.5s13.066-1.991,13.477-4.5h.025V4.5Z" transform="translate(-1.5)" fill="#545e73"/><g transform="translate(0 18.003)"><path d="M15,37.282c-7.457,0-13.5-2.141-13.5-4.782v7.033h.025c.411,2.51,6.287,4.5,13.477,4.5s13.066-1.991,13.477-4.5h.025V32.5C28.505,35.141,22.46,37.282,15,37.282Z" transform="translate(-1.5 -32.219)" fill="#9a2f06"/><path d="M1.5,32v.281A1.749,1.749,0,0,1,1.525,32Z" transform="translate(-1.5 -32)" fill="#38454f"/><path d="M49.455,32a1.749,1.749,0,0,1,.025.281V32Z" transform="translate(-22.475 -32)" fill="#38454f"/></g><g transform="translate(0 11.252)"><path d="M15,25.282c-7.457,0-13.5-2.141-13.5-4.782v7.033h.025c.411,2.51,6.287,4.5,13.477,4.5s13.066-1.991,13.477-4.5h.025V20.5C28.505,23.141,22.46,25.282,15,25.282Z" transform="translate(-1.5 -20.219)" fill="#f64401"/><path d="M1.5,20v.281A1.749,1.749,0,0,1,1.525,20Z" transform="translate(-1.5 -20)" fill="#556080"/><path d="M49.455,20a1.749,1.749,0,0,1,.025.281V20Z" transform="translate(-22.475 -20)" fill="#556080"/></g><ellipse cx="13.5" cy="5" rx="13.5" ry="5" transform="translate(-0.182 -0.494)" fill="#f64401"/><g transform="translate(0 4.501)"><path d="M15,13.282c-7.457,0-13.5-2.141-13.5-4.782v7.033h.025c.411,2.51,6.287,4.5,13.477,4.5s13.066-1.991,13.477-4.5h.025V8.5C28.505,11.141,22.46,13.282,15,13.282Z" transform="translate(-1.5 -8.219)" fill="#982c03"/><path d="M1.5,8v.281A1.749,1.749,0,0,1,1.525,8Z" transform="translate(-1.5 -8)" fill="#8697cb"/><path d="M49.455,8a1.749,1.749,0,0,1,.025.281V8Z" transform="translate(-22.475 -8)" fill="#8697cb"/></g></g><g transform="translate(15.846 20.816)"><path d="M40.121,42a4,4,0,0,0-3.938-4,3.914,3.914,0,0,0-3.39,1.995,2.364,2.364,0,0,0-.752-.124,2.441,2.441,0,0,0-2.367,1.96A3.028,3.028,0,0,0,28,44.549a2.982,2.982,0,0,0,2.93,3.015h6.062c.034,0,.067,0,.1-.005s.067.005.1.005h2.425a2.813,2.813,0,0,0,.5-5.564Z" transform="translate(-27.437 -37.437)" fill="#fff"/><path d="M39.181,47.689H36.756c-.035,0-.071,0-.106,0s-.061,0-.1,0H30.493A3.54,3.54,0,0,1,27,44.112a3.617,3.617,0,0,1,1.753-3.1,3.015,3.015,0,0,1,2.85-2.145,2.892,2.892,0,0,1,.5.043A4.487,4.487,0,0,1,35.746,37a4.565,4.565,0,0,1,4.475,4.125,3.38,3.38,0,0,1-1.04,6.564Zm-2.553-1.13.1,0,2.448,0a2.251,2.251,0,0,0,.4-4.449l-.45-.087-.006-.457a3.446,3.446,0,0,0-3.375-3.445,3.329,3.329,0,0,0-2.9,1.713l-.23.4-.437-.147A1.791,1.791,0,0,0,31.6,40a1.889,1.889,0,0,0-1.817,1.515l-.057.267-.245.12a2.477,2.477,0,0,0-1.36,2.214,2.414,2.414,0,0,0,2.367,2.452Z" transform="translate(-27 -37)" fill="#f64401"/></g></g></svg>