<svg xmlns="http://www.w3.org/2000/svg" width="21.376" height="21.268" viewBox="0 0 21.376 21.268"><g transform="translate(0 -0.261)"><path d="M19.729,50.448a.532.532,0,0,0-.532.532v4.727a1.6,1.6,0,0,1-1.6,1.6H2.662a1.6,1.6,0,0,1-1.6-1.6V41.834a1.6,1.6,0,0,1,1.6-1.6H7.389a.532.532,0,1,0,0-1.065H2.662A2.665,2.665,0,0,0,0,41.834V55.707a2.665,2.665,0,0,0,2.662,2.662H17.6a2.665,2.665,0,0,0,2.662-2.662V50.98A.532.532,0,0,0,19.729,50.448Zm0,0" transform="translate(0 -36.84)" fill="#999"/><path d="M122.481.962a2.4,2.4,0,0,0-3.388,0l-9.5,9.5a.532.532,0,0,0-.137.234L108.21,15.2a.532.532,0,0,0,.655.655l4.509-1.249a.532.532,0,0,0,.234-.137l9.5-9.5a2.4,2.4,0,0,0,0-3.388Zm-11.726,9.844,7.773-7.773,2.507,2.507-7.773,7.773Zm-.5,1,2,2-2.77.768Zm12.1-7.589-.565.565L119.281,2.28l.565-.565a1.331,1.331,0,0,1,1.882,0l.625.625A1.333,1.333,0,0,1,122.353,4.222Zm0,0" transform="translate(-102.431)" fill="#999"/></g></svg>