<svg xmlns="http://www.w3.org/2000/svg" width="28.279" height="46.598" viewBox="0 0 28.279 46.598"><g transform="translate(-105.383 -411.677)"><g transform="translate(105.383 411.677)"><path d="M28.279,2.912A2.9,2.9,0,0,0,27.42.852,2.945,2.945,0,0,0,25.343,0H2.935A2.945,2.945,0,0,0,.858.852,2.9,2.9,0,0,0,0,2.912V43.685a2.9,2.9,0,0,0,.858,2.061,2.945,2.945,0,0,0,2.077.852H25.343a2.945,2.945,0,0,0,2.077-.852,2.9,2.9,0,0,0,.858-2.061ZM2.965,1.941H25.412a1,1,0,0,1,1.008.971v3.2H1.957v-3.2a1,1,0,0,1,1.008-.971ZM26.42,8.057V37.084H1.957V8.057Zm-1.008,36.6H2.965a1,1,0,0,1-1.008-.971v-4.66H26.42v4.66a1,1,0,0,1-1.008.971Zm0,0" transform="translate(0 0)" fill="#f64401"/><path d="M106.78,36.957h5.714a.979.979,0,0,0,0-1.957H106.78a.979.979,0,1,0,0,1.957Zm0,0" transform="translate(-95.448 -31.575)" fill="#f64401"/><path d="M96.407,417H86.779a.979.979,0,0,0,0,1.957h9.628a.979.979,0,1,0,0-1.957Zm0,0" transform="translate(-77.405 -376.567)" fill="#f64401"/></g></g></svg>