<svg xmlns="http://www.w3.org/2000/svg" width="42.592" height="42.592" viewBox="0 0 42.592 42.592"><g transform="translate(-238 -413)"><g transform="translate(238 413)"><path d="M21.3,0h-.011A21.283,21.283,0,0,0,4.054,33.778L1.4,41.689l8.186-2.617A21.292,21.292,0,1,0,21.3,0Z" fill="#449e00"/><path d="M132.034,137.42c-.514,1.451-2.553,2.654-4.179,3.005-1.113.237-2.566.426-7.459-1.6-6.258-2.593-10.289-8.952-10.6-9.365s-2.529-3.367-2.529-6.423a6.8,6.8,0,0,1,2.178-5.183,3.094,3.094,0,0,1,2.177-.764c.264,0,.5.013.713.024.626.027.94.064,1.352,1.051.514,1.238,1.765,4.294,1.914,4.608a1.268,1.268,0,0,1,.09,1.153,3.681,3.681,0,0,1-.689.977c-.314.362-.612.639-.926,1.028-.288.338-.612.7-.25,1.326a18.9,18.9,0,0,0,3.455,4.294,15.657,15.657,0,0,0,4.994,3.08,1.347,1.347,0,0,0,1.5-.237,25.774,25.774,0,0,0,1.664-2.2,1.189,1.189,0,0,1,1.528-.463c.575.2,3.618,1.7,4.243,2.015s1.038.463,1.19.727A5.3,5.3,0,0,1,132.034,137.42Z" transform="translate(-98.341 -107.348)" fill="#fff"/></g></g></svg>