<svg xmlns="http://www.w3.org/2000/svg" width="47.288" height="41.737" viewBox="0 0 47.288 41.737"><g transform="translate(-26 -13.596)"><g transform="translate(34.224 34.772)"><g transform="translate(0)"><path d="M107.028,312a1.028,1.028,0,1,0,1.028,1.028A1.028,1.028,0,0,0,107.028,312Z" transform="translate(-106 -312)" fill="#fff"/></g></g><g transform="translate(26 13.596)"><g transform="translate(0)"><path d="M73.288,125.121a4.117,4.117,0,0,0-4.112-4.112H61.5a25.816,25.816,0,0,0,1.576-9.814,11.708,11.708,0,0,0-.073-1.182,4.111,4.111,0,0,0-8.221.1v1.028c0,6.5-8.349,10.155-14.649,11.721a3.088,3.088,0,0,0-2.827-1.852H27.028A1.028,1.028,0,0,0,26,122.037v24.672a1.028,1.028,0,0,0,1.028,1.028h10.28a3.088,3.088,0,0,0,2.817-1.831q.783.2,1.453.377a33.343,33.343,0,0,0,10.375,1.454H63.008a4.11,4.11,0,0,0,3.416-6.4,4.124,4.124,0,0,0,2.064-6.17A4.111,4.111,0,0,0,70.536,129,4.113,4.113,0,0,0,73.288,125.121ZM38.336,144.653a1.029,1.029,0,0,1-1.028,1.028H28.056V123.065h9.252a1.029,1.029,0,0,1,1.028,1.028Zm30.84-17.476h-5.14a1.028,1.028,0,1,0,0,2.056H67.12a2.056,2.056,0,0,1,0,4.112H61.98a1.028,1.028,0,1,0,0,2.056h3.084a2.056,2.056,0,0,1,0,4.112h-5.14a1.028,1.028,0,1,0,0,2.056h3.084a2.056,2.056,0,0,1,0,4.112H51.953a31.362,31.362,0,0,1-9.855-1.387q-.777-.2-1.705-.442V124.918c7.439-1.772,16.448-6.1,16.448-13.778v-1.028a2.056,2.056,0,0,1,4.112,0v0a24.131,24.131,0,0,1-1.678,10.9H55.812a1.028,1.028,0,1,0,0,2.056H69.176a2.056,2.056,0,1,1,0,4.112Z" transform="translate(-26 -106)" fill="#fff"/></g></g></g></svg>