<svg xmlns="http://www.w3.org/2000/svg" width="13.082" height="15.626" viewBox="0 0 13.082 15.626"><g transform="translate(0.5 0.5)"><path d="M566.991,667.039h-4.444a3.051,3.051,0,0,1-3.047-3.047V657a.5.5,0,0,1,1,0v6.991a2.05,2.05,0,0,0,2.047,2.047h4.444a2.05,2.05,0,0,0,2.047-2.047V657a.5.5,0,0,1,1,0v6.991A3.051,3.051,0,0,1,566.991,667.039Z" transform="translate(-558.728 -651.913)" fill="red"/><path d="M567.1,650.9a.5.5,0,0,1-.5-.5.905.905,0,0,0-.9-.9h-.451a.905.905,0,0,0-.9.9.5.5,0,0,1-1,0,1.906,1.906,0,0,1,1.9-1.9h.451a1.906,1.906,0,0,1,1.9,1.9A.5.5,0,0,1,567.1,650.9Z" transform="translate(-559.492 -649)" fill="red"/><path d="M12.082.5H0A.5.5,0,0,1-.5,0,.5.5,0,0,1,0-.5H12.082a.5.5,0,0,1,.5.5A.5.5,0,0,1,12.082.5Z" transform="translate(0 3.18)" fill="red"/><path d="M0,6.5A.5.5,0,0,1-.5,6V0A.5.5,0,0,1,0-.5.5.5,0,0,1,.5,0V6A.5.5,0,0,1,0,6.5Z" transform="translate(4 6.145)" fill="red"/><path d="M0,6.5A.5.5,0,0,1-.5,6V0A.5.5,0,0,1,0-.5.5.5,0,0,1,.5,0V6A.5.5,0,0,1,0,6.5Z" transform="translate(8 6.145)" fill="red"/></g></svg>