<svg xmlns="http://www.w3.org/2000/svg" width="26.593" height="41.015" viewBox="0 0 26.593 41.015"><path d="M26.593,261.039a1.223,1.223,0,0,0-2.446,0,10.85,10.85,0,1,1-21.7,0,1.223,1.223,0,0,0-2.446,0,13.314,13.314,0,0,0,12.073,13.24v3.293H7.534a1.223,1.223,0,0,0,0,2.447H19.059a1.223,1.223,0,1,0,0-2.447H14.52v-3.293A13.314,13.314,0,0,0,26.593,261.039Zm0,0" transform="translate(0 -239.003)" fill="#3b4958"/><path d="M178.982,261.039a1.223,1.223,0,0,0-2.446,0,10.862,10.862,0,0,1-10.85,10.85h-.026v8.129h5.788a1.223,1.223,0,1,0,0-2.447h-4.54v-3.293A13.314,13.314,0,0,0,178.982,261.039Zm0,0" transform="translate(-152.389 -239.003)" fill="#17202a"/><path d="M76.047,29.868a7.841,7.841,0,0,1-7.832-7.832V7.832a7.832,7.832,0,0,1,15.664,0v14.2A7.841,7.841,0,0,1,76.047,29.868Zm0,0" transform="translate(-62.75)" fill="#ff7045"/><path d="M165.686,0h-.026V29.868h.026a7.841,7.841,0,0,0,7.832-7.832V7.832A7.841,7.841,0,0,0,165.686,0Zm0,0" transform="translate(-152.389)" fill="#f64c1c"/></svg>