<svg xmlns="http://www.w3.org/2000/svg" width="13.609" height="19.908" viewBox="0 0 13.609 19.908"><g transform="translate(-81)"><path d="M149.083,13.648h.467a4.087,4.087,0,0,0,4.083-4.083V4.122A4.107,4.107,0,0,0,149.549,0h-.467A4.107,4.107,0,0,0,145,4.114V9.565A4.087,4.087,0,0,0,149.083,13.648Zm0-12.481h.467a2.934,2.934,0,0,1,2.9,2.605h-.951a.583.583,0,1,0,0,1.166h.972V6.26h-1.594a.583.583,0,1,0,0,1.166h1.594V8.749h-.972a.583.583,0,1,0,0,1.166h.95a2.92,2.92,0,0,1-2.894,2.566h-.467a2.92,2.92,0,0,1-2.894-2.566h.95a.583.583,0,1,0,0-1.166h-.972V7.427h1.594a.583.583,0,1,0,0-1.166h-1.594V4.938h.972a.583.583,0,1,0,0-1.166h-.951A2.934,2.934,0,0,1,149.083,1.166Z" transform="translate(-61.512)" fill="#fff"/><path d="M94.609,225.583a.583.583,0,1,0-1.166,0,5.638,5.638,0,0,1-11.276,0,.583.583,0,1,0-1.166,0,6.813,6.813,0,0,0,6.221,6.779v2.63H84.072a.583.583,0,0,0,0,1.166h7.465a.583.583,0,1,0,0-1.166H88.388v-2.63A6.813,6.813,0,0,0,94.609,225.583Z" transform="translate(0 -216.251)" fill="#fff"/></g></svg>