<svg xmlns="http://www.w3.org/2000/svg" width="35.148" height="30.217" viewBox="0 0 35.148 30.217"><g transform="translate(0 -28.588)"><g transform="translate(0 28.588)"><g transform="translate(0 0)"><path d="M35.1,45.686h0L28.462,29.023a.69.69,0,0,0-.9-.386h0L.644,39.358a.676.676,0,0,0-.276.219.682.682,0,0,0-.368.6V58.115a.69.69,0,0,0,.69.69H29.668a.69.69,0,0,0,.69-.69v-9.8l4.355-1.735A.69.69,0,0,0,35.1,45.686Zm-6.12,11.739H1.38V40.866h27.6ZM11.512,39.489l11.553-4.6a5.489,5.489,0,0,0,3.956,1.706l1.152,2.9Zm18.846,7.346v-6.66a.69.69,0,0,0-.69-.69h-.011L28.2,35.814a.571.571,0,0,0-.057-.087.682.682,0,0,0-.721-.531A4.126,4.126,0,0,1,23.8,33.638a.684.684,0,0,0-.885-.155.775.775,0,0,0-.1.018l-14.1,5.616a.682.682,0,0,0-.379.368H4.051l23.384-9.311,6.126,15.383Z" transform="translate(0 -28.588)" fill="#57758f"/><path d="M32.493,197.466a4.125,4.125,0,0,1,2.785,2.782.69.69,0,0,0,.661.493.63.63,0,0,0,.106-.016.642.642,0,0,0,.095.019H52.7a.594.594,0,0,0,.084-.017.642.642,0,0,0,.776-.472v0a4.125,4.125,0,0,1,2.785-2.785.681.681,0,0,0,.473-.759.7.7,0,0,0,.02-.1v-5.52a.623.623,0,0,0-.021-.1.68.68,0,0,0-.473-.759,4.121,4.121,0,0,1-2.784-2.786.682.682,0,0,0-.764-.473.654.654,0,0,0-.1-.019H36.14a.653.653,0,0,0-.1.021.682.682,0,0,0-.759.473,4.125,4.125,0,0,1-2.785,2.785.681.681,0,0,0-.473.759.7.7,0,0,0-.019.1v5.52a.636.636,0,0,0,.019.1A.683.683,0,0,0,32.493,197.466Zm.887-6.1a5.475,5.475,0,0,0,3.04-3.04h16a5.476,5.476,0,0,0,3.041,3.04v4.959a5.481,5.481,0,0,0-3.04,3.04h-16a5.481,5.481,0,0,0-3.04-3.04Z" transform="translate(-29.24 -173.288)" fill="#57758f"/><path d="M132.14,227.225a4.14,4.14,0,1,0-4.14-4.14A4.14,4.14,0,0,0,132.14,227.225Zm0-6.9a2.76,2.76,0,1,1-2.76,2.76A2.76,2.76,0,0,1,132.14,220.325Z" transform="translate(-116.961 -202.528)" fill="#57758f"/><path d="M77.035,257.015A1.035,1.035,0,1,0,76,255.98,1.035,1.035,0,0,0,77.035,257.015Zm0-1.38a.345.345,0,1,1-.345.345A.345.345,0,0,1,77.035,255.635Z" transform="translate(-69.445 -235.423)" fill="#57758f"/><path d="M253.035,257.015A1.035,1.035,0,1,0,252,255.98,1.035,1.035,0,0,0,253.035,257.015Zm0-1.38a.345.345,0,1,1-.345.345A.345.345,0,0,1,253.035,255.635Z" transform="translate(-230.266 -235.423)" fill="#57758f"/></g></g></g></svg>