<svg xmlns="http://www.w3.org/2000/svg" width="23.557" height="30.428" viewBox="0 0 23.557 30.428"><path d="M75.435,232H72.491a.491.491,0,0,0-.491.491v2.945a.491.491,0,0,0,.491.491h2.945a.491.491,0,0,0,.491-.491v-2.945A.491.491,0,0,0,75.435,232Zm-.491,2.945H72.982v-1.963h1.963Zm0,0" transform="translate(-67.583 -217.768)" fill="#96adc2"/><path d="M75.435,312H72.491a.491.491,0,0,0-.491.491v2.945a.491.491,0,0,0,.491.491h2.945a.491.491,0,0,0,.491-.491v-2.945A.491.491,0,0,0,75.435,312Zm-.491,2.945H72.982v-1.963h1.963Zm0,0" transform="translate(-67.583 -292.86)" fill="#96adc2"/><path d="M75.435,392H72.491a.491.491,0,0,0-.491.491v2.945a.491.491,0,0,0,.491.491h2.945a.491.491,0,0,0,.491-.491v-2.945A.491.491,0,0,0,75.435,392Zm-.491,2.945H72.982v-1.963h1.963Zm0,0" transform="translate(-67.583 -367.952)" fill="#96adc2"/><path d="M163.435,232h-2.945a.491.491,0,0,0-.491.491v2.945a.491.491,0,0,0,.491.491h2.945a.491.491,0,0,0,.491-.491v-2.945A.491.491,0,0,0,163.435,232Zm-.491,2.945h-1.963v-1.963h1.963Zm0,0" transform="translate(-150.185 -217.768)" fill="#96adc2"/><path d="M163.435,312h-2.945a.491.491,0,0,0-.491.491v2.945a.491.491,0,0,0,.491.491h2.945a.491.491,0,0,0,.491-.491v-2.945A.491.491,0,0,0,163.435,312Zm-.491,2.945h-1.963v-1.963h1.963Zm0,0" transform="translate(-150.185 -292.86)" fill="#96adc2"/><path d="M163.435,392h-2.945a.491.491,0,0,0-.491.491v2.945a.491.491,0,0,0,.491.491h2.945a.491.491,0,0,0,.491-.491v-2.945A.491.491,0,0,0,163.435,392Zm-.491,2.945h-1.963v-1.963h1.963Zm0,0" transform="translate(-150.185 -367.952)" fill="#96adc2"/><path d="M251.435,232h-2.945a.491.491,0,0,0-.491.491v2.945a.491.491,0,0,0,.491.491h2.945a.491.491,0,0,0,.491-.491v-2.945A.491.491,0,0,0,251.435,232Zm-.491,2.945h-1.963v-1.963h1.963Zm0,0" transform="translate(-232.786 -217.768)" fill="#96adc2"/><path d="M251.435,312h-2.945a.491.491,0,0,0-.491.491v2.945a.491.491,0,0,0,.491.491h2.945a.491.491,0,0,0,.491-.491v-2.945A.491.491,0,0,0,251.435,312Zm-.491,2.945h-1.963v-1.963h1.963Zm0,0" transform="translate(-232.786 -292.86)" fill="#96adc2"/><path d="M251.435,392h-2.945a.491.491,0,0,0-.491.491v2.945a.491.491,0,0,0,.491.491h2.945a.491.491,0,0,0,.491-.491v-2.945A.491.491,0,0,0,251.435,392Zm-.491,2.945h-1.963v-1.963h1.963Zm0,0" transform="translate(-232.786 -367.952)" fill="#96adc2"/><path d="M72.2,56h-15.7a.491.491,0,0,0-.491.491v8.343a.491.491,0,0,0,.491.491H72.2a.491.491,0,0,0,.491-.491V56.491A.491.491,0,0,0,72.2,56ZM71.7,64.343H56.982V56.982H71.7Zm0,0" transform="translate(-52.565 -52.565)" fill="#96adc2"/><path d="M21.1,0H2.454A2.457,2.457,0,0,0,0,2.454v25.52a2.457,2.457,0,0,0,2.454,2.454H21.1a2.457,2.457,0,0,0,2.454-2.454V2.454A2.457,2.457,0,0,0,21.1,0Zm1.472,27.974A1.472,1.472,0,0,1,21.1,29.446H2.454A1.472,1.472,0,0,1,.982,27.974V2.454A1.472,1.472,0,0,1,2.454.982H21.1a1.472,1.472,0,0,1,1.472,1.472Zm0,0" fill="#96adc2"/><path d="M27.926,24.491A.491.491,0,0,0,27.435,24H24.982a.982.982,0,0,0-.982.982v5.4a.491.491,0,1,0,.982,0v-5.4h2.454A.491.491,0,0,0,27.926,24.491Zm0,0" transform="translate(-22.528 -22.528)" fill="#96adc2"/><path d="M97.488,97.849l.084-.093v2.167a.491.491,0,1,0,.982,0V96.488a.491.491,0,0,0-.854-.33l-.938,1.03a.491.491,0,1,0,.726.661Zm0,0" transform="translate(-90.702 -90.108)" fill="#96adc2"/><path d="M241.472,99.406c-.266,0-.491-.168-.491-.368a.491.491,0,0,0-.982,0,1.478,1.478,0,0,0,2.945,0,1.276,1.276,0,0,0-.338-.859,1.276,1.276,0,0,0,.338-.859,1.478,1.478,0,0,0-2.945,0,.491.491,0,0,0,.982,0c0-.2.225-.368.491-.368s.491.168.491.368-.225.368-.491.368a.491.491,0,0,0,0,.982c.266,0,.491.168.491.368S241.738,99.406,241.472,99.406Zm0,0" transform="translate(-225.277 -90.081)" fill="#96adc2"/><path d="M168.491,98.011a.491.491,0,0,0,.491-.491.534.534,0,0,1,.527-.54.428.428,0,0,1,.387.218.529.529,0,0,1-.007.528,6.792,6.792,0,0,1-1.218,1.346c-.186.174-.367.343-.529.507a.491.491,0,0,0,.349.836h1.963a.491.491,0,0,0,0-.982h-.736a5.969,5.969,0,0,0,1.018-1.213,1.511,1.511,0,0,0,.011-1.511A1.41,1.41,0,0,0,169.509,96,1.517,1.517,0,0,0,168,97.521.491.491,0,0,0,168.491,98.011Zm0,0" transform="translate(-157.694 -90.11)" fill="#96adc2"/></svg>