<svg xmlns="http://www.w3.org/2000/svg" width="24.389" height="23.957" viewBox="0 0 24.389 23.957"><g transform="translate(-31 -35)"><path d="M220.019,95.65h.6a.325.325,0,1,0,0-.65h-.6a.325.325,0,1,0,0,.65Z" transform="translate(-178.467 -56.748)" fill="#004ac9"/><path d="M137.138,414a1.138,1.138,0,1,0,1.138,1.138A1.138,1.138,0,0,0,137.138,414Zm0,1.626a.488.488,0,1,1,.488-.488A.488.488,0,0,1,137.138,415.626Z" transform="translate(-99.309 -358.458)" fill="#004ac9"/><path d="M50.458,36.514a4.931,4.931,0,0,0-4.92,4.592h-.88V37.493A2.5,2.5,0,0,0,42.166,35H33.493A2.5,2.5,0,0,0,31,37.493V56.464a2.5,2.5,0,0,0,2.493,2.493h8.672a2.5,2.5,0,0,0,2.493-2.493V52.023h4.264a1.855,1.855,0,0,0,1.338-.569.277.277,0,0,0,.092-.1,1.853,1.853,0,0,0,.431-1.189V46.368a4.932,4.932,0,0,0-.325-9.854Zm-3.585,8.32q.159.168.331.319L45.5,46.6l-1.27,1.077a1.053,1.053,0,0,1-1.367,0L36.992,42.7a1.212,1.212,0,0,1,1.18-.943h7.364a4.909,4.909,0,0,0,1.336,3.078ZM42.166,58.307H33.493a1.845,1.845,0,0,1-1.843-1.843V55.055H44.008v1.409a1.845,1.845,0,0,1-1.843,1.843Zm1.843-3.9H31.65V38.9h8.835a.325.325,0,0,0,0-.65H31.65v-.759a1.845,1.845,0,0,1,1.843-1.843h8.672a1.845,1.845,0,0,1,1.843,1.843v.759H43.25a.325.325,0,0,0,0,.65h.759v2.2H38.173a1.863,1.863,0,0,0-1.844,1.617.325.325,0,0,0-.014.142c0,.034,0,.068,0,.1v7.2a1.852,1.852,0,0,0,.43,1.189.323.323,0,0,0,.053.071.326.326,0,0,0,.038.031,1.855,1.855,0,0,0,1.339.571h5.836Zm-5.836-3.032a1.2,1.2,0,0,1-.674-.205L40.7,47.9a.325.325,0,1,0-.465-.455l-3.155,3.227a1.2,1.2,0,0,1-.113-.509V43.525l5.484,4.644a1.7,1.7,0,0,0,2.208,0l3.076-2.609a4.868,4.868,0,0,0,2.4.81v3.793a1.2,1.2,0,0,1-.114.511l-3.175-3.23a.325.325,0,1,0-.464.456l3.214,3.27a1.2,1.2,0,0,1-.672.2Zm12.286-5.644a4.282,4.282,0,1,1,4.282-4.282A4.282,4.282,0,0,1,50.458,45.729Z" transform="translate(0)" fill="#004ac9"/><path d="M357.575,102.8h0a.325.325,0,0,0,0-.65l-2.3-.025-.922-.01h0a.325.325,0,1,0,0,.65l.922.01a1.057,1.057,0,0,1,1,.743l-1.928-.021h0a.325.325,0,1,0,0,.65l1.928.021a1.059,1.059,0,0,1-1,.721h-.012l-.922-.01h0a.325.325,0,0,0-.226.559l2.281,2.2a.325.325,0,1,0,.452-.468l-1.693-1.635h.123a1.711,1.711,0,0,0,1.673-1.365l.624.007h0a.325.325,0,0,0,0-.65l-.623-.007a1.69,1.69,0,0,0-.328-.736Z" transform="translate(-305.494 -63.474)" fill="#004ac9"/></g></svg>