<svg xmlns="http://www.w3.org/2000/svg" width="36.5" height="19.999" viewBox="0 0 36.5 19.999"><g transform="translate(0 -115.732)"><path d="M10.658,240.669H6.989a5.921,5.921,0,0,1-4.384-9.9.534.534,0,1,0-.791-.719,6.989,6.989,0,0,0,5.175,11.687h3.669a.534.534,0,0,0,0-1.069Z" transform="translate(0 -106.006)" fill="#96adc2"/><path d="M82.091,124.2v-2.413a5.979,5.979,0,0,0-.641-2.709.534.534,0,0,0-.955.48,4.92,4.92,0,0,1,.527,2.229v2.088l-1.069,0v-2.032A4.016,4.016,0,0,0,78.761,119a3.883,3.883,0,0,0-5.511.04l-.861-.643A5.05,5.05,0,0,1,76.04,116.8a4.935,4.935,0,0,1,2.979.991.534.534,0,1,0,.64-.856,6.047,6.047,0,0,0-8.267.972.819.819,0,0,0,.14,1.18l1.258.94a.821.821,0,0,0,1.106-.117,2.815,2.815,0,0,1,4.114-.153,2.941,2.941,0,0,1,.874,2.079v2.032H77.211a7.019,7.019,0,0,0-5.01-2.116H53.609a6.918,6.918,0,0,0-3.115.731.534.534,0,1,0,.477.956,5.859,5.859,0,0,1,2.638-.619H72.2a5.861,5.861,0,0,1,3.367,1.048H71.974a2.175,2.175,0,0,0-2.173,2.173v5.844a2.175,2.175,0,0,0,2.173,2.173H74.8a5.918,5.918,0,0,1-2.6.6H59.813a.534.534,0,1,0,0,1.069H72.2a6.982,6.982,0,0,0,4.534-1.672h4.212a2.175,2.175,0,0,0,2.173-2.173v-5.844A2.173,2.173,0,0,0,82.091,124.2Zm-.04,7.69a1.105,1.105,0,0,1-1.1,1.1H71.974a1.105,1.105,0,0,1-1.1-1.1v-5.844a1.105,1.105,0,0,1,1.1-1.1h8.972a1.105,1.105,0,0,1,1.1,1.1Z" transform="translate(-46.62)" fill="#96adc2"/><path d="M392.664,254.849a2.1,2.1,0,0,0-3.481,1.307,2.083,2.083,0,0,0,.886,1.978v.791a.749.749,0,0,0,.748.748h.9a.749.749,0,0,0,.748-.748v-.791a2.1,2.1,0,0,0,.2-3.286Zm-.858,2.437a.89.89,0,0,0-.414.752v.567h-.254v-.567a.89.89,0,0,0-.415-.752,1.029,1.029,0,1,1,1.083,0Z" transform="translate(-361.424 -128.703)" fill="#96adc2"/><path d="M64.551,266.131a.534.534,0,0,0,.73.2l.976-.563v1.127a.534.534,0,0,0,1.069,0v-1.127l.976.563a.534.534,0,0,0,.534-.925l-.976-.563.976-.563a.534.534,0,1,0-.534-.925l-.976.563v-1.127a.534.534,0,0,0-1.069,0v1.127l-.976-.563a.534.534,0,1,0-.534.925l.976.563-.976.563A.534.534,0,0,0,64.551,266.131Z" transform="translate(-59.883 -136.074)" fill="#96adc2"/><path d="M151.634,266.89v-1.127l.976.563a.534.534,0,1,0,.534-.925l-.976-.563.976-.563a.534.534,0,1,0-.534-.925l-.976.563v-1.127a.534.534,0,0,0-1.069,0v1.127l-.976-.563a.534.534,0,1,0-.534.925l.976.563-.976.563a.534.534,0,1,0,.534.925l.976-.563v1.127a.534.534,0,0,0,1.069,0Z" transform="translate(-138.181 -136.074)" fill="#96adc2"/><path d="M233.758,266.131a.534.534,0,0,0,.73.2l.976-.563v1.127a.534.534,0,0,0,1.069,0v-1.127l.976.563a.534.534,0,0,0,.534-.925l-.976-.563.976-.563a.534.534,0,1,0-.534-.925l-.976.563v-1.127a.534.534,0,0,0-1.069,0v1.127l-.976-.563a.534.534,0,1,0-.534.925l.976.563-.976.563A.534.534,0,0,0,233.758,266.131Z" transform="translate(-217.027 -136.074)" fill="#96adc2"/></g></svg>