<svg xmlns="http://www.w3.org/2000/svg" width="25.093" height="28.677" viewBox="0 0 25.093 28.677"><g transform="translate(-32)"><g transform="translate(32)"><g transform="translate(0)"><circle cx="1" cy="1" r="1" transform="translate(18 19)" fill="#57758f"/><path d="M55.972,20.276a1.12,1.12,0,0,0,1.12-1.12V15.011a4.486,4.486,0,0,0-4.481-4.481H51.266V6.579a6.723,6.723,0,0,0-13.443,0V10.53H36.481A4.486,4.486,0,0,0,32,15.011V24.2a4.486,4.486,0,0,0,4.481,4.481H52.612A4.486,4.486,0,0,0,57.093,24.2a1.12,1.12,0,1,0-2.24,0,2.243,2.243,0,0,1-2.24,2.24H36.481a2.243,2.243,0,0,1-2.24-2.24V15.011a2.243,2.243,0,0,1,2.24-2.24H52.612a2.243,2.243,0,0,1,2.24,2.24v4.145A1.12,1.12,0,0,0,55.972,20.276ZM49.025,10.53H40.063V6.579a4.483,4.483,0,0,1,8.962,0Z" transform="translate(-32)" fill="#57758f"/><circle cx="1" cy="1" r="1" transform="translate(9 19)" fill="#57758f"/><circle cx="1" cy="1" r="1" transform="translate(5 19)" fill="#57758f"/><circle cx="1" cy="1" r="1" transform="translate(14 19)" fill="#57758f"/></g></g></g></svg>