<svg xmlns="http://www.w3.org/2000/svg" width="50.909" height="38.182" viewBox="0 0 50.909 38.182"><path d="M47.515,0a3.241,3.241,0,0,1,2.121.848,3.024,3.024,0,0,1,1.273,2.545V35.212a3.241,3.241,0,0,1-.848,2.121,4.548,4.548,0,0,1-2.545.848H3.394a4.549,4.549,0,0,1-2.545-.848A4.549,4.549,0,0,1,0,34.788V3.394A3.241,3.241,0,0,1,.848,1.273,3.024,3.024,0,0,1,3.394,0ZM14.424,7.636A4.817,4.817,0,0,0,11.03,6.364,4.817,4.817,0,0,0,7.636,7.636,4.817,4.817,0,0,0,6.364,11.03a4.817,4.817,0,0,0,1.273,3.394A4.817,4.817,0,0,0,11.03,15.7a4.817,4.817,0,0,0,3.394-1.273A4.817,4.817,0,0,0,15.7,11.03,4.817,4.817,0,0,0,14.424,7.636ZM44.546,31.818,31.818,12.727,20.364,27.576l-7.636-5.515L6.364,31.818Z" fill="#f64401"/></svg>