<svg xmlns="http://www.w3.org/2000/svg" width="30.138" height="20.092" viewBox="0 0 30.138 20.092"><g transform="translate(0 -85.333)"><g transform="translate(0 85.333)"><g transform="translate(0 0)"><path d="M27,85.333H3.139A3.144,3.144,0,0,0,0,88.472v13.813a3.144,3.144,0,0,0,3.139,3.139H27a3.144,3.144,0,0,0,3.139-3.139V88.472A3.144,3.144,0,0,0,27,85.333Zm1.884,16.953A1.886,1.886,0,0,1,27,104.169H3.139a1.886,1.886,0,0,1-1.884-1.884V88.472a1.886,1.886,0,0,1,1.884-1.884H27a1.886,1.886,0,0,1,1.884,1.884v13.813Z" transform="translate(0 -85.333)" fill="#999"/></g></g><g transform="translate(0 89.1)"><g transform="translate(0 0)"><path d="M29.51,149.333H.628a.628.628,0,0,0-.628.628v3.767a.628.628,0,0,0,.628.628H29.51a.628.628,0,0,0,.628-.628v-3.767A.628.628,0,0,0,29.51,149.333Zm-.628,3.767H1.256v-2.512H28.882V153.1Z" transform="translate(0 -149.333)" fill="#999"/></g></g><g transform="translate(3.767 97.891)"><g transform="translate(0 0)"><path d="M72.162,298.667H64.628a.628.628,0,1,0,0,1.256h7.535a.628.628,0,1,0,0-1.256Z" transform="translate(-64 -298.667)" fill="#999"/></g></g><g transform="translate(3.767 100.402)"><path d="M72.162,341.333H64.628a.628.628,0,0,0,0,1.256h7.535a.628.628,0,0,0,0-1.256Z" transform="translate(-64 -341.333)" fill="#999"/></g><g transform="translate(21.348 96.635)"><path d="M365.806,277.333h-1.256a1.886,1.886,0,0,0-1.884,1.884v1.256a1.886,1.886,0,0,0,1.884,1.884h1.256a1.886,1.886,0,0,0,1.884-1.884v-1.256A1.886,1.886,0,0,0,365.806,277.333Zm.628,3.139a.628.628,0,0,1-.628.628h-1.256a.628.628,0,0,1-.628-.628v-1.256a.628.628,0,0,1,.628-.628h1.256a.628.628,0,0,1,.628.628Z" transform="translate(-362.667 -277.333)" fill="#999"/></g></g></svg>