<svg xmlns="http://www.w3.org/2000/svg" width="47.046" height="45.801" viewBox="0 0 47.046 45.801"><path d="M200.766,31H189.74a9.642,9.642,0,0,0-1.378,19.2v4.233a1.378,1.378,0,0,0,2.353.974l4.539-4.539.571-.571h4.942a9.648,9.648,0,1,0,0-19.3Z" transform="translate(-163.461 -31)" fill="#fed843"/><path d="M351.513,50.3a9.648,9.648,0,1,0,0-19.3H346V50.867l.571-.571Z" transform="translate(-314.208 -31)" fill="#fabe2c"/><path d="M35.1,125.36v5.513a4.125,4.125,0,0,1-4.116,4.135c-7.94,0-15.686-3.754-21.447-9.492S0,112.055,0,104.116A4.123,4.123,0,0,1,4.135,100H9.648a1.376,1.376,0,0,1,1.307.942l2.757,8.25a1.379,1.379,0,0,1-.16,1.2L11.214,113.9a21.6,21.6,0,0,0,4.264,5.677,22.439,22.439,0,0,0,5.723,4.218l3.507-2.338a1.38,1.38,0,0,1,1.2-.16l8.27,2.757a1.359,1.359,0,0,1,.923,1.307Z" transform="translate(0 -89.207)" fill="#ff641a"/><path d="M129.363,318.843v5.513a4.125,4.125,0,0,1-4.116,4.135c-7.94,0-15.686-3.754-21.447-9.492l5.94-5.94a22.438,22.438,0,0,0,5.723,4.218l3.507-2.338a1.38,1.38,0,0,1,1.2-.16l8.27,2.757A1.359,1.359,0,0,1,129.363,318.843Z" transform="translate(-94.262 -282.69)" fill="#f03800"/><circle cx="1.295" cy="1.295" r="1.295" transform="translate(25.03 9.282)" fill="#613d5c"/><ellipse cx="1.619" cy="1.295" rx="1.619" ry="1.295" transform="translate(30.21 9.282)" fill="#613d5c"/><g transform="translate(31.792 9.224)"><path d="M347.378,122.376A1.378,1.378,0,0,0,346,121v2.757A1.378,1.378,0,0,0,347.378,122.376Z" transform="translate(-346 -120.998)" fill="#4b2746"/><circle cx="1.295" cy="1.295" r="1.295" transform="translate(4.245 0.056)" fill="#4b2746"/></g></svg>