<svg xmlns="http://www.w3.org/2000/svg" xmlns:xlink="http://www.w3.org/1999/xlink" width="381" height="591" viewBox="0 0 381 591"><defs><clipPath id="a"><rect width="381" height="591" fill="none"/></clipPath><filter id="b" x="0" y="0" width="381" height="179" filterUnits="userSpaceOnUse"><feOffset dy="3" input="SourceAlpha"/><feGaussianBlur stdDeviation="6" result="c"/><feFlood flood-opacity="0.102"/><feComposite operator="in" in2="c"/><feComposite in="SourceGraphic"/></filter><filter id="d" x="0" y="149" width="381" height="179" filterUnits="userSpaceOnUse"><feOffset dy="3" input="SourceAlpha"/><feGaussianBlur stdDeviation="6" result="e"/><feFlood flood-opacity="0.102"/><feComposite operator="in" in2="e"/><feComposite in="SourceGraphic"/></filter><filter id="f" x="0" y="298" width="381" height="179" filterUnits="userSpaceOnUse"><feOffset dy="3" input="SourceAlpha"/><feGaussianBlur stdDeviation="6" result="g"/><feFlood flood-opacity="0.102"/><feComposite operator="in" in2="g"/><feComposite in="SourceGraphic"/></filter><filter id="h" x="0" y="447" width="381" height="179" filterUnits="userSpaceOnUse"><feOffset dy="3" input="SourceAlpha"/><feGaussianBlur stdDeviation="6" result="i"/><feFlood flood-opacity="0.102"/><feComposite operator="in" in2="i"/><feComposite in="SourceGraphic"/></filter></defs><g clip-path="url(#a)"><g transform="translate(3 -243)"><g transform="translate(0 168)"><g transform="translate(0 -12)"><g transform="matrix(1, 0, 0, 1, -3, 87)" filter="url(#b)"><g transform="translate(18 19)" fill="#fff"><path d="M 336 138.8000030517578 L 9 138.8000030517578 C 4.147681713104248 138.8000030517578 0.2000000029802322 134.8523254394531 0.2000000029802322 130 L 0.2000000029802322 5 C 0.2000000029802322 0.1476818174123764 4.147681713104248 -3.799999952316284 9 -3.799999952316284 L 336 -3.799999952316284 C 340.8523254394531 -3.799999952316284 344.7999877929688 0.1476818174123764 344.7999877929688 5 L 344.7999877929688 130 C 344.7999877929688 134.8523254394531 340.8523254394531 138.8000030517578 336 138.8000030517578 Z" stroke="none"/><path d="M 9 -3.600006103515625 C 4.257965087890625 -3.600006103515625 0.399993896484375 0.2579498291015625 0.399993896484375 5 L 0.399993896484375 130 C 0.399993896484375 134.7420501708984 4.257965087890625 138.6000061035156 9 138.6000061035156 L 336 138.6000061035156 C 340.7420349121094 138.6000061035156 344.6000061035156 134.7420501708984 344.6000061035156 130 L 344.6000061035156 5 C 344.6000061035156 0.2579498291015625 340.7420349121094 -3.600006103515625 336 -3.600006103515625 L 9 -3.600006103515625 M 9 -4 L 336 -4 C 340.9705505371094 -4 345 0.0294036865234375 345 5 L 345 130 C 345 134.9705505371094 340.9705505371094 139 336 139 L 9 139 C 4.029449462890625 139 0 134.9705505371094 0 130 L 0 5 C 0 0.0294036865234375 4.029449462890625 -4 9 -4 Z" stroke="none" fill="#ddd"/></g></g></g><text transform="translate(30 102)" fill="#222" font-size="16" font-family="SegoeUI, Segoe UI"><tspan x="35.836" y="17">Morning Gamabet</tspan></text><text transform="translate(30 124)" fill="#f64401" font-size="16" font-family="SegoeUI-Bold, Segoe UI" font-weight="700"><tspan x="57.219" y="17">366-57-160</tspan></text><text transform="translate(30 169)" fill="#333" font-size="10" font-family="SegoeUI, Segoe UI"><tspan x="0" y="11">Open Bids:</tspan><tspan y="11" fill="#888">11:30Am</tspan></text><text transform="translate(138 169)" fill="#333" font-size="10" font-family="SegoeUI, Segoe UI"><tspan x="0" y="11">Close Bids:</tspan><tspan y="11" fill="#888">12:30Am</tspan></text><text transform="translate(61 150)" fill="#f64401" font-size="10" font-family="Poppins-Regular, Poppins"><tspan x="51.62" y="11">Closed</tspan></text></g><path d="M56.682,2h60.139C126.035,2,133.5,8.233,133.5,17.447s-7.469,15.447-16.682,15.447H56.682C47.469,32.893,40,26.66,40,17.447S47.469,2,56.682,2Z" transform="translate(209.615 278.574)" fill="#f64401"/><text transform="translate(243 289.447)" fill="#fff" font-size="9" font-family="SegoeUI, Segoe UI"><tspan x="39.451" y="10">Play Game</tspan></text><g transform="translate(255.028 286.222)"><path d="M9.9,0a9.9,9.9,0,1,0,9.9,9.9A9.915,9.915,0,0,0,9.9,0Zm3.937,10.251L8.064,13.965a.413.413,0,0,1-.636-.347V6.19a.413.413,0,0,1,.636-.347l5.777,3.714a.413.413,0,0,1,0,.694Z" fill="#fff"/></g></g><g transform="translate(3 -94)"><g transform="translate(0 168)"><g transform="translate(0 -12)"><g transform="matrix(1, 0, 0, 1, -3, -62)" filter="url(#d)"><g transform="translate(18 168)" fill="#fff"><path d="M 336 138.8000030517578 L 9 138.8000030517578 C 4.147681713104248 138.8000030517578 0.2000000029802322 134.8523254394531 0.2000000029802322 130 L 0.2000000029802322 5 C 0.2000000029802322 0.1476818174123764 4.147681713104248 -3.799999952316284 9 -3.799999952316284 L 336 -3.799999952316284 C 340.8523254394531 -3.799999952316284 344.7999877929688 0.1476818174123764 344.7999877929688 5 L 344.7999877929688 130 C 344.7999877929688 134.8523254394531 340.8523254394531 138.8000030517578 336 138.8000030517578 Z" stroke="none"/><path d="M 9 -3.600006103515625 C 4.257965087890625 -3.600006103515625 0.399993896484375 0.2579498291015625 0.399993896484375 5 L 0.399993896484375 130 C 0.399993896484375 134.7420501708984 4.257965087890625 138.6000061035156 9 138.6000061035156 L 336 138.6000061035156 C 340.7420349121094 138.6000061035156 344.6000061035156 134.7420501708984 344.6000061035156 130 L 344.6000061035156 5 C 344.6000061035156 0.2579498291015625 340.7420349121094 -3.600006103515625 336 -3.600006103515625 L 9 -3.600006103515625 M 9 -4 L 336 -4 C 340.9705505371094 -4 345 0.0294036865234375 345 5 L 345 130 C 345 134.9705505371094 340.9705505371094 139 336 139 L 9 139 C 4.029449462890625 139 0 134.9705505371094 0 130 L 0 5 C 0 0.0294036865234375 4.029449462890625 -4 9 -4 Z" stroke="none" fill="#ddd"/></g></g></g><text transform="translate(30 102)" fill="#222" font-size="16" font-family="SegoeUI, Segoe UI"><tspan x="35.836" y="17">Morning Gamabet</tspan></text><text transform="translate(30 124)" fill="#f64401" font-size="16" font-family="SegoeUI-Bold, Segoe UI" font-weight="700"><tspan x="57.219" y="17">366-57-160</tspan></text><text transform="translate(30 169)" fill="#333" font-size="10" font-family="SegoeUI, Segoe UI"><tspan x="0" y="11">Open Bids:</tspan><tspan y="11" fill="#888">11:30Am</tspan></text><text transform="translate(138 169)" fill="#333" font-size="10" font-family="SegoeUI, Segoe UI"><tspan x="0" y="11">Close Bids:</tspan><tspan y="11" fill="#888">12:30Am</tspan></text><text transform="translate(61 150)" fill="#f64401" font-size="10" font-family="Poppins-Regular, Poppins"><tspan x="51.62" y="11">Closed</tspan></text></g><path d="M56.682,2h60.139C126.035,2,133.5,8.233,133.5,17.447s-7.469,15.447-16.682,15.447H56.682C47.469,32.893,40,26.66,40,17.447S47.469,2,56.682,2Z" transform="translate(209.615 278.574)" fill="#f64401"/><text transform="translate(243 289.447)" fill="#fff" font-size="9" font-family="SegoeUI, Segoe UI"><tspan x="39.451" y="10">Play Game</tspan></text><g transform="translate(255.028 286.222)"><path d="M9.9,0a9.9,9.9,0,1,0,9.9,9.9A9.915,9.915,0,0,0,9.9,0Zm3.937,10.251L8.064,13.965a.413.413,0,0,1-.636-.347V6.19a.413.413,0,0,1,.636-.347l5.777,3.714a.413.413,0,0,1,0,.694Z" fill="#fff"/></g></g><g transform="translate(3 55)"><g transform="translate(0 168)"><g transform="translate(0 -12)"><g transform="matrix(1, 0, 0, 1, -3, -211)" filter="url(#f)"><g transform="translate(18 317)" fill="#fff"><path d="M 336 138.8000030517578 L 9 138.8000030517578 C 4.147681713104248 138.8000030517578 0.2000000029802322 134.8523254394531 0.2000000029802322 130 L 0.2000000029802322 5 C 0.2000000029802322 0.1476818174123764 4.147681713104248 -3.799999952316284 9 -3.799999952316284 L 336 -3.799999952316284 C 340.8523254394531 -3.799999952316284 344.7999877929688 0.1476818174123764 344.7999877929688 5 L 344.7999877929688 130 C 344.7999877929688 134.8523254394531 340.8523254394531 138.8000030517578 336 138.8000030517578 Z" stroke="none"/><path d="M 9 -3.600006103515625 C 4.257965087890625 -3.600006103515625 0.399993896484375 0.2579498291015625 0.399993896484375 5 L 0.399993896484375 130 C 0.399993896484375 134.7420501708984 4.257965087890625 138.6000061035156 9 138.6000061035156 L 336 138.6000061035156 C 340.7420349121094 138.6000061035156 344.6000061035156 134.7420501708984 344.6000061035156 130 L 344.6000061035156 5 C 344.6000061035156 0.2579498291015625 340.7420349121094 -3.600006103515625 336 -3.600006103515625 L 9 -3.600006103515625 M 9 -4 L 336 -4 C 340.9705505371094 -4 345 0.0294036865234375 345 5 L 345 130 C 345 134.9705505371094 340.9705505371094 139 336 139 L 9 139 C 4.029449462890625 139 0 134.9705505371094 0 130 L 0 5 C 0 0.0294036865234375 4.029449462890625 -4 9 -4 Z" stroke="none" fill="#ddd"/></g></g></g><text transform="translate(30 102)" fill="#222" font-size="16" font-family="SegoeUI, Segoe UI"><tspan x="35.836" y="17">Morning Gamabet</tspan></text><text transform="translate(30 124)" fill="#f64401" font-size="16" font-family="SegoeUI-Bold, Segoe UI" font-weight="700"><tspan x="57.219" y="17">366-57-160</tspan></text><text transform="translate(30 169)" fill="#333" font-size="10" font-family="SegoeUI, Segoe UI"><tspan x="0" y="11">Open Bids:</tspan><tspan y="11" fill="#888">11:30Am</tspan></text><text transform="translate(138 169)" fill="#333" font-size="10" font-family="SegoeUI, Segoe UI"><tspan x="0" y="11">Close Bids:</tspan><tspan y="11" fill="#888">12:30Am</tspan></text><text transform="translate(61 150)" fill="#f64401" font-size="10" font-family="Poppins-Regular, Poppins"><tspan x="51.62" y="11">Closed</tspan></text></g><path d="M56.682,2h60.139C126.035,2,133.5,8.233,133.5,17.447s-7.469,15.447-16.682,15.447H56.682C47.469,32.893,40,26.66,40,17.447S47.469,2,56.682,2Z" transform="translate(209.615 278.574)" fill="#f64401"/><text transform="translate(243 289.447)" fill="#fff" font-size="9" font-family="SegoeUI, Segoe UI"><tspan x="39.451" y="10">Play Game</tspan></text><g transform="translate(255.028 286.222)"><path d="M9.9,0a9.9,9.9,0,1,0,9.9,9.9A9.915,9.915,0,0,0,9.9,0Zm3.937,10.251L8.064,13.965a.413.413,0,0,1-.636-.347V6.19a.413.413,0,0,1,.636-.347l5.777,3.714a.413.413,0,0,1,0,.694Z" fill="#fff"/></g></g><g transform="translate(3 204)"><g transform="translate(0 168)"><g transform="translate(0 -12)"><g transform="matrix(1, 0, 0, 1, -3, -360)" filter="url(#h)"><g transform="translate(18 466)" fill="#fff"><path d="M 336 138.8000030517578 L 9 138.8000030517578 C 4.147681713104248 138.8000030517578 0.2000000029802322 134.8523254394531 0.2000000029802322 130 L 0.2000000029802322 5 C 0.2000000029802322 0.1476818174123764 4.147681713104248 -3.799999952316284 9 -3.799999952316284 L 336 -3.799999952316284 C 340.8523254394531 -3.799999952316284 344.7999877929688 0.1476818174123764 344.7999877929688 5 L 344.7999877929688 130 C 344.7999877929688 134.8523254394531 340.8523254394531 138.8000030517578 336 138.8000030517578 Z" stroke="none"/><path d="M 9 -3.600006103515625 C 4.257965087890625 -3.600006103515625 0.399993896484375 0.2579498291015625 0.399993896484375 5 L 0.399993896484375 130 C 0.399993896484375 134.7420501708984 4.257965087890625 138.6000061035156 9 138.6000061035156 L 336 138.6000061035156 C 340.7420349121094 138.6000061035156 344.6000061035156 134.7420501708984 344.6000061035156 130 L 344.6000061035156 5 C 344.6000061035156 0.2579498291015625 340.7420349121094 -3.600006103515625 336 -3.600006103515625 L 9 -3.600006103515625 M 9 -4 L 336 -4 C 340.9705505371094 -4 345 0.0294036865234375 345 5 L 345 130 C 345 134.9705505371094 340.9705505371094 139 336 139 L 9 139 C 4.029449462890625 139 0 134.9705505371094 0 130 L 0 5 C 0 0.0294036865234375 4.029449462890625 -4 9 -4 Z" stroke="none" fill="#ddd"/></g></g></g><text transform="translate(30 102)" fill="#222" font-size="16" font-family="SegoeUI, Segoe UI"><tspan x="35.836" y="17">Morning Gamabet</tspan></text><text transform="translate(30 124)" fill="#f64401" font-size="16" font-family="SegoeUI-Bold, Segoe UI" font-weight="700"><tspan x="57.219" y="17">366-57-160</tspan></text><text transform="translate(30 169)" fill="#333" font-size="10" font-family="SegoeUI, Segoe UI"><tspan x="0" y="11">Open Bids:</tspan><tspan y="11" fill="#888">11:30Am</tspan></text><text transform="translate(138 169)" fill="#333" font-size="10" font-family="SegoeUI, Segoe UI"><tspan x="0" y="11">Close Bids:</tspan><tspan y="11" fill="#888">12:30Am</tspan></text><text transform="translate(61 150)" fill="#f64401" font-size="10" font-family="Poppins-Regular, Poppins"><tspan x="51.62" y="11">Closed</tspan></text></g><path d="M56.682,2h60.139C126.035,2,133.5,8.233,133.5,17.447s-7.469,15.447-16.682,15.447H56.682C47.469,32.893,40,26.66,40,17.447S47.469,2,56.682,2Z" transform="translate(209.615 278.574)" fill="#f64401"/><text transform="translate(243 289.447)" fill="#fff" font-size="9" font-family="SegoeUI, Segoe UI"><tspan x="39.451" y="10">Play Game</tspan></text><g transform="translate(255.028 286.222)"><path d="M9.9,0a9.9,9.9,0,1,0,9.9,9.9A9.915,9.915,0,0,0,9.9,0Zm3.937,10.251L8.064,13.965a.413.413,0,0,1-.636-.347V6.19a.413.413,0,0,1,.636-.347l5.777,3.714a.413.413,0,0,1,0,.694Z" fill="#fff"/></g></g></g></svg>