<svg xmlns="http://www.w3.org/2000/svg" width="23.255" height="38.624" viewBox="0 0 23.255 38.624"><g transform="translate(0 0)"><path d="M23.255,2.414A2.41,2.41,0,0,0,20.841,0H2.414A2.41,2.41,0,0,0,0,2.414v33.8a2.41,2.41,0,0,0,2.414,2.414H20.841a2.41,2.41,0,0,0,2.414-2.414Zm-20.816-.8H20.9a.828.828,0,0,1,.829.8V5.069H1.609V2.414a.828.828,0,0,1,.829-.8ZM21.726,6.679V30.738H1.609V6.679ZM20.9,37.014H2.438a.828.828,0,0,1-.829-.8V32.347H21.726V36.21a.828.828,0,0,1-.829.8Zm0,0" transform="translate(0 0)" fill="#57758f"/><path d="M106.606,36.609h4.7a.8.8,0,1,0,0-1.609h-4.7a.8.8,0,1,0,0,1.609Zm0,0" transform="translate(-97.288 -32.184)" fill="#57758f"/><path d="M94.523,417H86.605a.8.8,0,1,0,0,1.609h7.918a.8.8,0,1,0,0-1.609Zm0,0" transform="translate(-78.897 -383.446)" fill="#57758f"/></g></svg>