<svg xmlns="http://www.w3.org/2000/svg" width="23.609" height="24.091" viewBox="0 0 23.609 24.091"><g transform="translate(-0.089 -0.001)"><path d="M.532,6.656A.975.975,0,0,0,.517,6.8v.991a.982.982,0,0,0,.638.917v1.458a.917.917,0,0,0,.873.913V19.5a.917.917,0,0,0-.873.913v1.454a.994.994,0,0,0-.638.926v.969a.328.328,0,0,0,.328.327H22.928a.327.327,0,0,0,.327-.327v-.969a.993.993,0,0,0-.637-.926V20.407a.917.917,0,0,0-.873-.913V11.078a.917.917,0,0,0,.873-.913V8.708a.983.983,0,0,0,.637-.917V6.806a.952.952,0,0,0-.015-.144.326.326,0,0,0,.264-.6L12.037.039a.328.328,0,0,0-.306,0L.264,6.06a.327.327,0,0,0,.268.6Zm1.277,2.62v-.5H5.586v.5Zm8.409,1.805V19.5a.917.917,0,0,0-.873.913v1.393H6.236V20.415a.917.917,0,0,0-.873-.913V11.078a.917.917,0,0,0,.873-.913v-1.4h3.1v1.393a.917.917,0,0,0,.873.915ZM10,9.275v-.5h3.777v.5Zm8.409,1.805V19.5a.917.917,0,0,0-.873.913v1.393H14.427V20.415a.917.917,0,0,0-.873-.913V11.078a.917.917,0,0,0,.873-.913v-1.4h3.1v1.393a.917.917,0,0,0,.873.915Zm-.218-1.805v-.5h3.777v.5Zm3.777,12.033v.5H18.186v-.5Zm-8.191,0v.5H10v-.5ZM10.541,10.43h-.284A.262.262,0,0,1,10,10.168V9.93h3.777v.238a.262.262,0,0,1-.262.262Zm2.36.655V19.5H10.869V11.085Zm-2.36,9.068H13.51a.262.262,0,0,1,.262.262v.238H10v-.238a.262.262,0,0,1,.262-.262Zm-4.96,1.155v.5H1.8v-.5ZM1.8,10.175V9.93H5.581v.238a.262.262,0,0,1-.262.262H2.06a.262.262,0,0,1-.255-.264Zm2.9.917V19.5H2.678V11.085Zm-2.9,9.33a.262.262,0,0,1,.262-.262H5.319a.262.262,0,0,1,.262.262v.238H1.8Zm20.8,2.386v.642H1.167v-.642a.338.338,0,0,1,.338-.339H22.262a.338.338,0,0,1,.338.332Zm-.637-2.386v.238H18.186v-.238a.262.262,0,0,1,.262-.262h3.259a.262.262,0,0,1,.255.255Zm-2.9-.917v-8.42h2.032V19.5Zm2.9-9.33a.262.262,0,0,1-.262.262H18.45a.262.262,0,0,1-.262-.262V9.93h3.777ZM11.884.694l9.752,5.126H2.132ZM1.167,6.806a.327.327,0,0,1,.327-.327H22.273a.327.327,0,0,1,.327.327V7.8a.327.327,0,0,1-.327.327H1.495A.327.327,0,0,1,1.167,7.8Zm0,0" transform="translate(0 0)" fill="#999"/></g></svg>