<svg xmlns="http://www.w3.org/2000/svg" width="17.124" height="17.124" viewBox="0 0 17.124 17.124"><path d="M8.564,0h0A8.557,8.557,0,0,0,1.63,13.581L.563,16.761l3.291-1.052A8.561,8.561,0,1,0,8.564,0Z" fill="#4caf50"/><path d="M117.223,125.263a2.416,2.416,0,0,1-1.68,1.208c-.447.1-1.032.171-3-.644a10.726,10.726,0,0,1-4.263-3.765,4.89,4.89,0,0,1-1.017-2.583,2.733,2.733,0,0,1,.875-2.084,1.244,1.244,0,0,1,.875-.307c.106,0,.2.005.287.01.252.011.378.026.544.423.207.5.71,1.726.77,1.853a.51.51,0,0,1,.036.463,1.48,1.48,0,0,1-.277.393c-.126.146-.246.257-.372.413-.116.136-.246.281-.1.533a7.6,7.6,0,0,0,1.389,1.726,6.3,6.3,0,0,0,2.008,1.238.541.541,0,0,0,.6-.1,10.362,10.362,0,0,0,.669-.886.478.478,0,0,1,.614-.186c.231.08,1.454.685,1.706.81s.417.186.478.292A2.132,2.132,0,0,1,117.223,125.263Z" transform="translate(-103.676 -113.172)" fill="#fafafa"/></svg>