<svg xmlns="http://www.w3.org/2000/svg" width="29.354" height="26.099" viewBox="0 0 29.354 26.099"><path d="M26.513,27.5H2.841A2.844,2.844,0,0,0,0,30.341v14.2a2.844,2.844,0,0,0,2.841,2.841h8.522a.947.947,0,1,0,0-1.894H7.507a6.643,6.643,0,0,0-5.613-5.613v-4.87a6.643,6.643,0,0,0,5.613-5.613H21.846a6.643,6.643,0,0,0,5.613,5.613v4.87a6.643,6.643,0,0,0-5.613,5.613H17.991a.947.947,0,1,0,0,1.894h8.522a2.844,2.844,0,0,0,2.841-2.841v-14.2A2.844,2.844,0,0,0,26.513,27.5ZM5.586,45.491H2.841a.948.948,0,0,1-.947-.947V41.8A4.749,4.749,0,0,1,5.586,45.491Zm-3.692-12.4V30.341a.948.948,0,0,1,.947-.947H5.586A4.749,4.749,0,0,1,1.894,33.086Zm21.874-3.692h2.745a.948.948,0,0,1,.947.947v2.745A4.749,4.749,0,0,1,23.768,29.394Zm2.745,16.1H23.768A4.749,4.749,0,0,1,27.46,41.8v2.745A.948.948,0,0,1,26.513,45.491Zm-6.628-8.049a5.208,5.208,0,1,0-5.208,5.208A5.214,5.214,0,0,0,19.885,37.442Zm-8.522,0a3.314,3.314,0,1,1,3.314,3.314A3.318,3.318,0,0,1,11.363,37.442ZM7.1,36.5a.947.947,0,1,1,0,1.894H6.628a.947.947,0,1,1,0-1.894Zm15.15,1.894a.947.947,0,1,1,0-1.894h.473a.947.947,0,1,1,0,1.894ZM17.3,50.029a.947.947,0,0,1,0,1.339l-1.953,1.953a.947.947,0,0,1-1.339,0l-1.953-1.953a.947.947,0,1,1,1.339-1.339l.337.337v-4.52a.947.947,0,1,1,1.894,0v4.52l.337-.337a.947.947,0,0,1,1.339,0Z" transform="translate(0 -27.5)" fill="#f64401"/></svg>